<?xml version="1.0" encoding="utf-8"?>
<!-- Generator: Adobe Illustrator 24.3.0, SVG Export Plug-In . SVG Version: 6.00 Build 0)  -->
<svg version="1.1" id="Слой_1" xmlns="http://www.w3.org/2000/svg" xmlns:xlink="http://www.w3.org/1999/xlink" x="0px" y="0px"
	 viewBox="0 0 283.46 283.46" style="enable-background:new 0 0 283.46 283.46;" xml:space="preserve">
<style type="text/css">
	.st0{fill:#CFCECE;}
</style>
<path class="st0" d="M241.64,267.17H41.82c-18.79,0-34.08-15.29-34.08-34.08V50.37c0-18.79,15.29-34.08,34.08-34.08h199.82
	c18.79,0,34.08,15.29,34.08,34.08v182.72C275.72,251.88,260.43,267.17,241.64,267.17z M41.82,31.46c-10.43,0-18.92,8.49-18.92,18.92
	v182.72c0,10.43,8.49,18.92,18.92,18.92h199.82c10.43,0,18.92-8.49,18.92-18.92V50.37c0-10.43-8.49-18.92-18.92-18.92H41.82z"/>
</svg>
