<?xml version="1.0" encoding="utf-8"?>
<!-- Generator: Adobe Illustrator 24.3.0, SVG Export Plug-In . SVG Version: 6.00 Build 0)  -->
<svg version="1.1" id="Слой_1" xmlns="http://www.w3.org/2000/svg" xmlns:xlink="http://www.w3.org/1999/xlink" x="0px" y="0px"
	 viewBox="0 0 283.46 283.46" style="enable-background:new 0 0 283.46 283.46;" xml:space="preserve">
<style type="text/css">
	.st0{fill:#50B794;}
	.st1{fill:#CFCECE;}
</style>
<g>
	<g>
		<path class="st0" d="M95.5,171.96c-5.98,6.31-6.01,16.66-0.06,23l10.71,11.41c5.95,6.34,15.71,6.36,21.69,0.05l90.05-94.99
			c5.98-6.31,6.01-16.66,0.06-23l-10.71-11.41c-5.95-6.34-15.71-6.36-21.69-0.05L95.5,171.96z"/>
	</g>
	<g>
		<path class="st0" d="M117.02,212.56c-0.01,0-0.03,0-0.04,0c-4.51-0.01-8.72-1.86-11.87-5.22l-10.71-11.41
			c-6.47-6.89-6.44-18.09,0.06-24.95L184.51,76c3.16-3.34,7.4-5.16,11.89-5.16c4.51,0.01,8.72,1.86,11.87,5.22l10.71,11.41
			c6.47,6.89,6.44,18.09-0.06,24.95l-90.05,94.99C125.72,210.73,121.51,212.56,117.02,212.56z M196.37,73.68
			c-3.7,0-7.18,1.52-9.79,4.27l-90.05,94.99c-5.49,5.79-5.51,15.23-0.05,21.05l10.71,11.41c2.61,2.78,6.09,4.31,9.8,4.32
			c3.72,0.02,7.2-1.51,9.82-4.27l90.05-94.99c5.49-5.79,5.51-15.23,0.05-21.05L206.2,78c-2.61-2.78-6.09-4.31-9.8-4.32
			C196.39,73.68,196.38,73.68,196.37,73.68z"/>
	</g>
</g>
<g>
	<g>
		<path class="st0" d="M106.25,206.36c5.95,6.34,15.71,6.36,21.69,0.05l10.75-11.34c5.98-6.31,6.01-16.66,0.06-23L90.3,120.46
			c-5.95-6.34-15.71-6.36-21.69-0.05l-10.75,11.34c-5.98,6.31-6.01,16.66-0.06,23L106.25,206.36z"/>
	</g>
	<g>
		<path class="st0" d="M117.12,212.55c-0.01,0-0.03,0-0.04,0c-4.51-0.01-8.72-1.86-11.87-5.22l-48.45-51.62
			c-6.47-6.89-6.44-18.09,0.06-24.95l10.75-11.34c3.16-3.33,7.36-5.16,11.85-5.16c0.01,0,0.03,0,0.04,0
			c4.51,0.01,8.72,1.86,11.87,5.22l48.45,51.62c6.47,6.89,6.44,18.09-0.06,24.95l-10.75,11.34
			C125.82,210.72,121.61,212.55,117.12,212.55z M79.43,117.11c-3.7,0-7.18,1.52-9.79,4.27l-10.75,11.34
			c-5.49,5.79-5.51,15.23-0.05,21.05l48.45,51.62c2.61,2.78,6.09,4.31,9.8,4.32c0.01,0,0.02,0,0.03,0c3.7,0,7.18-1.52,9.79-4.27
			l10.75-11.34c5.49-5.79,5.51-15.23,0.05-21.05l-48.45-51.62c-2.61-2.78-6.09-4.31-9.8-4.32
			C79.45,117.11,79.44,117.11,79.43,117.11z"/>
	</g>
</g>
<path class="st1" d="M241.64,267.17H41.82c-18.79,0-34.08-15.29-34.08-34.08V50.37c0-18.79,15.29-34.08,34.08-34.08h199.82
	c18.79,0,34.08,15.29,34.08,34.08v182.72C275.72,251.88,260.43,267.17,241.64,267.17z M41.82,31.46c-10.43,0-18.92,8.49-18.92,18.92
	v182.72c0,10.43,8.49,18.92,18.92,18.92h199.82c10.43,0,18.92-8.49,18.92-18.92V50.37c0-10.43-8.49-18.92-18.92-18.92H41.82z"/>
</svg>
