<?xml version="1.0" encoding="utf-8"?>
<!-- Generator: Adobe Illustrator 24.3.0, SVG Export Plug-In . SVG Version: 6.00 Build 0)  -->
<svg version="1.1" id="Слой_1" xmlns="http://www.w3.org/2000/svg" xmlns:xlink="http://www.w3.org/1999/xlink" x="0px" y="0px"
	 viewBox="0 0 28.35 25.36" style="enable-background:new 0 0 28.35 25.36;" xml:space="preserve">
<style type="text/css">
	.st0{fill:#010202;}
</style>
<g>
	<path class="st0" d="M14.17,14.77c-4.03,0-7.31-3.28-7.31-7.31s3.28-7.31,7.31-7.31c4.03,0,7.31,3.28,7.31,7.31
		S18.21,14.77,14.17,14.77z M14.17,2.23c-2.88,0-5.22,2.34-5.22,5.22s2.34,5.22,5.22,5.22s5.22-2.34,5.22-5.22
		S17.05,2.23,14.17,2.23z"/>
	<path class="st0" d="M24.62,25.22c-0.58,0-1.04-0.47-1.04-1.04c0-5.19-4.22-9.4-9.4-9.4s-9.4,4.22-9.4,9.4
		c0,0.58-0.47,1.04-1.04,1.04s-1.04-0.47-1.04-1.04c0-6.34,5.16-11.49,11.49-11.49s11.49,5.16,11.49,11.49
		C25.67,24.75,25.2,25.22,24.62,25.22z"/>
</g>
</svg>
